<mxfile host="app.diagrams.net" modified="2023-09-14T14:05:56.260Z" agent="Mozilla/5.0 (Windows NT 10.0; Win64; x64; rv:109.0) Gecko/20100101 Firefox/117.0" etag="imkzoQVghkUjmRPpuiOe" version="21.7.5" type="github" pages="2">
  <diagram name="第 1 页" id="YWOMyF6jZBOqD-jYHlsh">
    <mxGraphModel dx="1674" dy="754" grid="1" gridSize="10" guides="1" tooltips="1" connect="1" arrows="1" fold="1" page="1" pageScale="1" pageWidth="3300" pageHeight="4681" math="0" shadow="0">
      <root>
        <mxCell id="0" />
        <mxCell id="1" parent="0" />
        <mxCell id="HVXfHegkIW3sQwh9kgc5-12" style="edgeStyle=orthogonalEdgeStyle;rounded=0;orthogonalLoop=1;jettySize=auto;html=1;exitX=0;exitY=0.75;exitDx=0;exitDy=0;entryX=1;entryY=0.75;entryDx=0;entryDy=0;" parent="1" source="HVXfHegkIW3sQwh9kgc5-2" target="HVXfHegkIW3sQwh9kgc5-3" edge="1">
          <mxGeometry relative="1" as="geometry" />
        </mxCell>
        <mxCell id="HVXfHegkIW3sQwh9kgc5-13" style="edgeStyle=orthogonalEdgeStyle;rounded=0;orthogonalLoop=1;jettySize=auto;html=1;exitX=0.5;exitY=0;exitDx=0;exitDy=0;" parent="1" source="HVXfHegkIW3sQwh9kgc5-2" target="HVXfHegkIW3sQwh9kgc5-5" edge="1">
          <mxGeometry relative="1" as="geometry">
            <mxPoint x="80" y="79" as="targetPoint" />
            <Array as="points">
              <mxPoint x="630" y="40" />
              <mxPoint x="80" y="40" />
            </Array>
          </mxGeometry>
        </mxCell>
        <mxCell id="HVXfHegkIW3sQwh9kgc5-2" value="5" style="rounded=0;whiteSpace=wrap;html=1;" parent="1" vertex="1">
          <mxGeometry x="570" y="89" width="120" height="60" as="geometry" />
        </mxCell>
        <mxCell id="HVXfHegkIW3sQwh9kgc5-8" style="edgeStyle=orthogonalEdgeStyle;rounded=0;orthogonalLoop=1;jettySize=auto;html=1;exitX=1;exitY=0.25;exitDx=0;exitDy=0;entryX=0;entryY=0.25;entryDx=0;entryDy=0;" parent="1" source="HVXfHegkIW3sQwh9kgc5-3" target="HVXfHegkIW3sQwh9kgc5-2" edge="1">
          <mxGeometry relative="1" as="geometry" />
        </mxCell>
        <mxCell id="HVXfHegkIW3sQwh9kgc5-11" style="edgeStyle=orthogonalEdgeStyle;rounded=0;orthogonalLoop=1;jettySize=auto;html=1;exitX=0;exitY=0.75;exitDx=0;exitDy=0;entryX=1;entryY=0.75;entryDx=0;entryDy=0;" parent="1" source="HVXfHegkIW3sQwh9kgc5-3" target="HVXfHegkIW3sQwh9kgc5-4" edge="1">
          <mxGeometry relative="1" as="geometry" />
        </mxCell>
        <mxCell id="HVXfHegkIW3sQwh9kgc5-3" value="3" style="rounded=0;whiteSpace=wrap;html=1;" parent="1" vertex="1">
          <mxGeometry x="390" y="89" width="120" height="60" as="geometry" />
        </mxCell>
        <mxCell id="HVXfHegkIW3sQwh9kgc5-7" style="edgeStyle=orthogonalEdgeStyle;rounded=0;orthogonalLoop=1;jettySize=auto;html=1;exitX=1;exitY=0.25;exitDx=0;exitDy=0;entryX=0;entryY=0.25;entryDx=0;entryDy=0;" parent="1" source="HVXfHegkIW3sQwh9kgc5-4" target="HVXfHegkIW3sQwh9kgc5-3" edge="1">
          <mxGeometry relative="1" as="geometry" />
        </mxCell>
        <mxCell id="HVXfHegkIW3sQwh9kgc5-10" style="edgeStyle=orthogonalEdgeStyle;rounded=0;orthogonalLoop=1;jettySize=auto;html=1;exitX=0;exitY=0.75;exitDx=0;exitDy=0;entryX=1;entryY=0.75;entryDx=0;entryDy=0;" parent="1" source="HVXfHegkIW3sQwh9kgc5-4" target="HVXfHegkIW3sQwh9kgc5-5" edge="1">
          <mxGeometry relative="1" as="geometry" />
        </mxCell>
        <mxCell id="HVXfHegkIW3sQwh9kgc5-4" value="0" style="rounded=0;whiteSpace=wrap;html=1;" parent="1" vertex="1">
          <mxGeometry x="200" y="89" width="120" height="60" as="geometry" />
        </mxCell>
        <mxCell id="HVXfHegkIW3sQwh9kgc5-6" style="edgeStyle=orthogonalEdgeStyle;rounded=0;orthogonalLoop=1;jettySize=auto;html=1;exitX=1;exitY=0.25;exitDx=0;exitDy=0;entryX=0;entryY=0.25;entryDx=0;entryDy=0;" parent="1" source="HVXfHegkIW3sQwh9kgc5-5" target="HVXfHegkIW3sQwh9kgc5-4" edge="1">
          <mxGeometry relative="1" as="geometry" />
        </mxCell>
        <mxCell id="HVXfHegkIW3sQwh9kgc5-14" style="edgeStyle=orthogonalEdgeStyle;rounded=0;orthogonalLoop=1;jettySize=auto;html=1;exitX=0.5;exitY=1;exitDx=0;exitDy=0;" parent="1" source="HVXfHegkIW3sQwh9kgc5-5" edge="1">
          <mxGeometry relative="1" as="geometry">
            <mxPoint x="640" y="159" as="targetPoint" />
            <Array as="points">
              <mxPoint x="70" y="204" />
              <mxPoint x="641" y="204" />
            </Array>
          </mxGeometry>
        </mxCell>
        <mxCell id="HVXfHegkIW3sQwh9kgc5-5" value="main_arena" style="rounded=0;whiteSpace=wrap;html=1;" parent="1" vertex="1">
          <mxGeometry x="10" y="89" width="120" height="60" as="geometry" />
        </mxCell>
        <mxCell id="HVXfHegkIW3sQwh9kgc5-21" style="edgeStyle=orthogonalEdgeStyle;rounded=0;orthogonalLoop=1;jettySize=auto;html=1;exitX=0.5;exitY=1;exitDx=0;exitDy=0;" parent="1" source="HVXfHegkIW3sQwh9kgc5-15" target="HVXfHegkIW3sQwh9kgc5-18" edge="1">
          <mxGeometry relative="1" as="geometry" />
        </mxCell>
        <mxCell id="HVXfHegkIW3sQwh9kgc5-15" value="0（418" style="rounded=0;whiteSpace=wrap;html=1;" parent="1" vertex="1">
          <mxGeometry x="220" y="490" width="120" height="60" as="geometry" />
        </mxCell>
        <mxCell id="HVXfHegkIW3sQwh9kgc5-34" style="edgeStyle=orthogonalEdgeStyle;rounded=0;orthogonalLoop=1;jettySize=auto;html=1;entryX=0.5;entryY=0;entryDx=0;entryDy=0;" parent="1" source="HVXfHegkIW3sQwh9kgc5-18" target="HVXfHegkIW3sQwh9kgc5-24" edge="1">
          <mxGeometry relative="1" as="geometry" />
        </mxCell>
        <mxCell id="HVXfHegkIW3sQwh9kgc5-18" value="1（1f8" style="rounded=0;whiteSpace=wrap;html=1;" parent="1" vertex="1">
          <mxGeometry x="220" y="585" width="120" height="60" as="geometry" />
        </mxCell>
        <mxCell id="HVXfHegkIW3sQwh9kgc5-23" style="edgeStyle=orthogonalEdgeStyle;rounded=0;orthogonalLoop=1;jettySize=auto;html=1;exitX=0.5;exitY=1;exitDx=0;exitDy=0;" parent="1" source="HVXfHegkIW3sQwh9kgc5-24" target="HVXfHegkIW3sQwh9kgc5-25" edge="1">
          <mxGeometry relative="1" as="geometry" />
        </mxCell>
        <mxCell id="HVXfHegkIW3sQwh9kgc5-24" value="2(428" style="rounded=0;whiteSpace=wrap;html=1;" parent="1" vertex="1">
          <mxGeometry x="220" y="675" width="120" height="60" as="geometry" />
        </mxCell>
        <mxCell id="HVXfHegkIW3sQwh9kgc5-33" style="edgeStyle=orthogonalEdgeStyle;rounded=0;orthogonalLoop=1;jettySize=auto;html=1;" parent="1" source="HVXfHegkIW3sQwh9kgc5-25" target="HVXfHegkIW3sQwh9kgc5-27" edge="1">
          <mxGeometry relative="1" as="geometry" />
        </mxCell>
        <mxCell id="HVXfHegkIW3sQwh9kgc5-25" value="3(438" style="rounded=0;whiteSpace=wrap;html=1;" parent="1" vertex="1">
          <mxGeometry x="221" y="765" width="120" height="60" as="geometry" />
        </mxCell>
        <mxCell id="HVXfHegkIW3sQwh9kgc5-26" style="edgeStyle=orthogonalEdgeStyle;rounded=0;orthogonalLoop=1;jettySize=auto;html=1;exitX=0.5;exitY=1;exitDx=0;exitDy=0;" parent="1" source="HVXfHegkIW3sQwh9kgc5-27" target="HVXfHegkIW3sQwh9kgc5-28" edge="1">
          <mxGeometry relative="1" as="geometry" />
        </mxCell>
        <mxCell id="HVXfHegkIW3sQwh9kgc5-27" value="4(208" style="rounded=0;whiteSpace=wrap;html=1;" parent="1" vertex="1">
          <mxGeometry x="220" y="855" width="120" height="60" as="geometry" />
        </mxCell>
        <mxCell id="HVXfHegkIW3sQwh9kgc5-32" style="edgeStyle=orthogonalEdgeStyle;rounded=0;orthogonalLoop=1;jettySize=auto;html=1;" parent="1" source="HVXfHegkIW3sQwh9kgc5-28" target="HVXfHegkIW3sQwh9kgc5-30" edge="1">
          <mxGeometry relative="1" as="geometry" />
        </mxCell>
        <mxCell id="HVXfHegkIW3sQwh9kgc5-28" value="5(428" style="rounded=0;whiteSpace=wrap;html=1;" parent="1" vertex="1">
          <mxGeometry x="220" y="935" width="120" height="60" as="geometry" />
        </mxCell>
        <mxCell id="HVXfHegkIW3sQwh9kgc5-30" value="6(208" style="rounded=0;whiteSpace=wrap;html=1;" parent="1" vertex="1">
          <mxGeometry x="220" y="1025" width="120" height="60" as="geometry" />
        </mxCell>
        <mxCell id="TgTyjeR_Xgfk5l9UP4cB-7" style="edgeStyle=orthogonalEdgeStyle;rounded=0;orthogonalLoop=1;jettySize=auto;html=1;exitX=0.5;exitY=1;exitDx=0;exitDy=0;" edge="1" parent="1" target="TgTyjeR_Xgfk5l9UP4cB-10">
          <mxGeometry relative="1" as="geometry">
            <mxPoint x="500" y="550" as="sourcePoint" />
          </mxGeometry>
        </mxCell>
        <mxCell id="TgTyjeR_Xgfk5l9UP4cB-9" style="edgeStyle=orthogonalEdgeStyle;rounded=0;orthogonalLoop=1;jettySize=auto;html=1;entryX=0.5;entryY=0;entryDx=0;entryDy=0;" edge="1" parent="1" source="TgTyjeR_Xgfk5l9UP4cB-10">
          <mxGeometry relative="1" as="geometry">
            <mxPoint x="500" y="675" as="targetPoint" />
          </mxGeometry>
        </mxCell>
        <mxCell id="TgTyjeR_Xgfk5l9UP4cB-10" value="1（1f8" style="rounded=0;whiteSpace=wrap;html=1;" vertex="1" parent="1">
          <mxGeometry x="440" y="585" width="120" height="60" as="geometry" />
        </mxCell>
        <mxCell id="TgTyjeR_Xgfk5l9UP4cB-11" style="edgeStyle=orthogonalEdgeStyle;rounded=0;orthogonalLoop=1;jettySize=auto;html=1;exitX=0.5;exitY=1;exitDx=0;exitDy=0;" edge="1" parent="1">
          <mxGeometry relative="1" as="geometry">
            <mxPoint x="500" y="735" as="sourcePoint" />
            <mxPoint x="501" y="765" as="targetPoint" />
          </mxGeometry>
        </mxCell>
        <mxCell id="TgTyjeR_Xgfk5l9UP4cB-13" style="edgeStyle=orthogonalEdgeStyle;rounded=0;orthogonalLoop=1;jettySize=auto;html=1;" edge="1" parent="1" target="TgTyjeR_Xgfk5l9UP4cB-16">
          <mxGeometry relative="1" as="geometry">
            <mxPoint x="501" y="825" as="sourcePoint" />
          </mxGeometry>
        </mxCell>
        <mxCell id="TgTyjeR_Xgfk5l9UP4cB-15" style="edgeStyle=orthogonalEdgeStyle;rounded=0;orthogonalLoop=1;jettySize=auto;html=1;exitX=0.5;exitY=1;exitDx=0;exitDy=0;" edge="1" parent="1" source="TgTyjeR_Xgfk5l9UP4cB-16">
          <mxGeometry relative="1" as="geometry">
            <mxPoint x="500" y="935" as="targetPoint" />
          </mxGeometry>
        </mxCell>
        <mxCell id="TgTyjeR_Xgfk5l9UP4cB-16" value="4(208" style="rounded=0;whiteSpace=wrap;html=1;" vertex="1" parent="1">
          <mxGeometry x="440" y="855" width="120" height="60" as="geometry" />
        </mxCell>
        <mxCell id="TgTyjeR_Xgfk5l9UP4cB-17" style="edgeStyle=orthogonalEdgeStyle;rounded=0;orthogonalLoop=1;jettySize=auto;html=1;" edge="1" parent="1" target="TgTyjeR_Xgfk5l9UP4cB-19">
          <mxGeometry relative="1" as="geometry">
            <mxPoint x="500" y="995" as="sourcePoint" />
          </mxGeometry>
        </mxCell>
        <mxCell id="TgTyjeR_Xgfk5l9UP4cB-19" value="6(208" style="rounded=0;whiteSpace=wrap;html=1;" vertex="1" parent="1">
          <mxGeometry x="440" y="1025" width="120" height="60" as="geometry" />
        </mxCell>
        <mxCell id="TgTyjeR_Xgfk5l9UP4cB-21" value="0（440" style="rounded=0;whiteSpace=wrap;html=1;" vertex="1" parent="1">
          <mxGeometry x="630" y="490" width="120" height="60" as="geometry" />
        </mxCell>
        <mxCell id="TgTyjeR_Xgfk5l9UP4cB-23" value="1（1f8" style="rounded=0;whiteSpace=wrap;html=1;" vertex="1" parent="1">
          <mxGeometry x="630" y="585" width="120" height="60" as="geometry" />
        </mxCell>
        <mxCell id="TgTyjeR_Xgfk5l9UP4cB-25" value="2(418" style="rounded=0;whiteSpace=wrap;html=1;" vertex="1" parent="1">
          <mxGeometry x="630" y="675" width="120" height="60" as="geometry" />
        </mxCell>
        <mxCell id="TgTyjeR_Xgfk5l9UP4cB-27" value="3(418" style="rounded=0;whiteSpace=wrap;html=1;" vertex="1" parent="1">
          <mxGeometry x="631" y="765" width="120" height="60" as="geometry" />
        </mxCell>
        <mxCell id="TgTyjeR_Xgfk5l9UP4cB-29" value="4(208" style="rounded=0;whiteSpace=wrap;html=1;" vertex="1" parent="1">
          <mxGeometry x="630" y="855" width="120" height="60" as="geometry" />
        </mxCell>
        <mxCell id="TgTyjeR_Xgfk5l9UP4cB-31" value="5(428" style="rounded=0;whiteSpace=wrap;html=1;" vertex="1" parent="1">
          <mxGeometry x="630" y="935" width="120" height="60" as="geometry" />
        </mxCell>
        <mxCell id="TgTyjeR_Xgfk5l9UP4cB-32" value="6(208" style="rounded=0;whiteSpace=wrap;html=1;" vertex="1" parent="1">
          <mxGeometry x="630" y="1025" width="120" height="60" as="geometry" />
        </mxCell>
        <mxCell id="TgTyjeR_Xgfk5l9UP4cB-59" style="edgeStyle=orthogonalEdgeStyle;rounded=0;orthogonalLoop=1;jettySize=auto;html=1;exitX=0.5;exitY=0;exitDx=0;exitDy=0;" edge="1" parent="1" source="TgTyjeR_Xgfk5l9UP4cB-60" target="TgTyjeR_Xgfk5l9UP4cB-69">
          <mxGeometry relative="1" as="geometry">
            <mxPoint x="870" y="69" as="targetPoint" />
            <Array as="points">
              <mxPoint x="1250" y="79" />
              <mxPoint x="1250" y="40" />
              <mxPoint x="870" y="40" />
            </Array>
          </mxGeometry>
        </mxCell>
        <mxCell id="TgTyjeR_Xgfk5l9UP4cB-73" style="edgeStyle=orthogonalEdgeStyle;rounded=0;orthogonalLoop=1;jettySize=auto;html=1;exitX=0;exitY=0.75;exitDx=0;exitDy=0;entryX=1;entryY=0.75;entryDx=0;entryDy=0;" edge="1" parent="1" source="TgTyjeR_Xgfk5l9UP4cB-60" target="TgTyjeR_Xgfk5l9UP4cB-66">
          <mxGeometry relative="1" as="geometry" />
        </mxCell>
        <mxCell id="TgTyjeR_Xgfk5l9UP4cB-60" value="5" style="rounded=0;whiteSpace=wrap;html=1;" vertex="1" parent="1">
          <mxGeometry x="1180" y="79" width="120" height="60" as="geometry" />
        </mxCell>
        <mxCell id="TgTyjeR_Xgfk5l9UP4cB-65" style="edgeStyle=orthogonalEdgeStyle;rounded=0;orthogonalLoop=1;jettySize=auto;html=1;exitX=0;exitY=0.75;exitDx=0;exitDy=0;entryX=1;entryY=0.75;entryDx=0;entryDy=0;" edge="1" parent="1" source="TgTyjeR_Xgfk5l9UP4cB-66" target="TgTyjeR_Xgfk5l9UP4cB-69">
          <mxGeometry relative="1" as="geometry" />
        </mxCell>
        <mxCell id="TgTyjeR_Xgfk5l9UP4cB-71" style="edgeStyle=orthogonalEdgeStyle;rounded=0;orthogonalLoop=1;jettySize=auto;html=1;exitX=1;exitY=0.25;exitDx=0;exitDy=0;entryX=0;entryY=0.25;entryDx=0;entryDy=0;" edge="1" parent="1" source="TgTyjeR_Xgfk5l9UP4cB-66" target="TgTyjeR_Xgfk5l9UP4cB-60">
          <mxGeometry relative="1" as="geometry" />
        </mxCell>
        <mxCell id="TgTyjeR_Xgfk5l9UP4cB-66" value="3" style="rounded=0;whiteSpace=wrap;html=1;" vertex="1" parent="1">
          <mxGeometry x="990" y="79" width="120" height="60" as="geometry" />
        </mxCell>
        <mxCell id="TgTyjeR_Xgfk5l9UP4cB-67" style="edgeStyle=orthogonalEdgeStyle;rounded=0;orthogonalLoop=1;jettySize=auto;html=1;exitX=1;exitY=0.25;exitDx=0;exitDy=0;entryX=0;entryY=0.25;entryDx=0;entryDy=0;" edge="1" parent="1" source="TgTyjeR_Xgfk5l9UP4cB-69" target="TgTyjeR_Xgfk5l9UP4cB-66">
          <mxGeometry relative="1" as="geometry" />
        </mxCell>
        <mxCell id="TgTyjeR_Xgfk5l9UP4cB-74" style="edgeStyle=orthogonalEdgeStyle;rounded=0;orthogonalLoop=1;jettySize=auto;html=1;exitX=0.5;exitY=1;exitDx=0;exitDy=0;entryX=0.5;entryY=1;entryDx=0;entryDy=0;" edge="1" parent="1" source="TgTyjeR_Xgfk5l9UP4cB-69" target="TgTyjeR_Xgfk5l9UP4cB-60">
          <mxGeometry relative="1" as="geometry">
            <mxPoint x="1240" y="210" as="targetPoint" />
            <Array as="points">
              <mxPoint x="860" y="210" />
              <mxPoint x="1241" y="210" />
            </Array>
          </mxGeometry>
        </mxCell>
        <mxCell id="TgTyjeR_Xgfk5l9UP4cB-69" value="main_arena" style="rounded=0;whiteSpace=wrap;html=1;" vertex="1" parent="1">
          <mxGeometry x="800" y="79" width="120" height="60" as="geometry" />
        </mxCell>
      </root>
    </mxGraphModel>
  </diagram>
  <diagram id="9LMVK7YDecLd0jYFVfEL" name="第 2 页">
    <mxGraphModel dx="4185" dy="1885" grid="1" gridSize="36" guides="1" tooltips="1" connect="1" arrows="1" fold="1" page="1" pageScale="1" pageWidth="3300" pageHeight="4681" math="0" shadow="0">
      <root>
        <mxCell id="0" />
        <mxCell id="1" parent="0" />
      </root>
    </mxGraphModel>
  </diagram>
</mxfile>
